<svg width="90" height="90" viewBox="0 0 90 90" fill="none" xmlns="http://www.w3.org/2000/svg">
<path d="M45 7.5C24.3 7.5 7.5 24.3 7.5 45C7.5 65.7 24.3 82.5 45 82.5C65.7 82.5 82.5 65.7 82.5 45C82.5 24.3 65.7 7.5 45 7.5Z" fill="#1A1A1C"/>
<g clip-path="url(#clip0_80_198)">
<path fill-rule="evenodd" clip-rule="evenodd" d="M39.9096 47.4012L45.0036 50.8842L49.914 47.4966L60.921 58.356C60.6312 58.4496 60.3216 58.5 59.9994 58.5H30.0006C29.6046 58.5 29.2266 58.4226 28.8792 58.284L39.9096 47.4012ZM63 38.4768V55.4994C63 55.944 62.9028 56.3652 62.73 56.745L51.9408 46.0998L63 38.4768ZM27 38.5722L37.8756 46.0098L27.1908 56.5542C27.0643 56.2169 26.9996 55.8596 27 55.4994V38.5722ZM59.9994 31.5C61.6554 31.5 63 32.8428 63 34.5006V35.5554L44.9964 47.9664L27 35.658V34.5006C27 32.8446 28.3428 31.5 30.0006 31.5H59.9994Z" fill="white"/>
</g>
<defs>
<clipPath id="clip0_80_198">
<rect width="36" height="36" fill="white" transform="translate(27 27)"/>
</clipPath>
</defs>
</svg>
