<svg width="90" height="90" viewBox="0 0 90 90" fill="none" xmlns="http://www.w3.org/2000/svg">
<path d="M45.08 11C26.2579 11 11 26.2579 11 45.08C11 63.9021 26.2579 79.16 45.08 79.16C63.9021 79.16 79.16 63.9021 79.16 45.08C79.16 26.2579 63.9021 11 45.08 11ZM58.1866 49.4501C58.1866 49.4501 61.2006 52.425 61.9425 53.8059C61.9638 53.8343 61.9744 53.8627 61.9815 53.8769C62.2833 54.3845 62.3543 54.7786 62.2052 55.0732C61.9567 55.5631 61.1047 55.8046 60.8136 55.8259H55.4886C55.1194 55.8259 54.3455 55.73 53.4083 55.0839C52.6876 54.5798 51.9777 53.7526 51.2854 52.9468C50.2524 51.7469 49.3578 50.7103 48.4561 50.7103C48.3415 50.7101 48.2277 50.7281 48.1188 50.7636C47.4372 50.9837 46.5639 51.9564 46.5639 54.5479C46.5639 55.3573 45.9249 55.8223 45.4741 55.8223H43.0352C42.2045 55.8223 37.877 55.5312 34.043 51.4878C29.3499 46.5355 25.1254 36.6026 25.0899 36.5103C24.8237 35.8677 25.3739 35.5234 25.9739 35.5234H31.3521C32.0692 35.5234 32.3035 35.96 32.4668 36.347C32.6585 36.7978 33.3614 38.5906 34.5152 40.607C36.386 43.8943 37.5327 45.2291 38.4522 45.2291C38.6246 45.2271 38.7939 45.1832 38.9456 45.1013C40.1455 44.4339 39.9218 40.1561 39.8686 39.2686C39.8686 39.1018 39.865 37.3552 39.2509 36.5174C38.8107 35.9103 38.0616 35.6796 37.6072 35.5944C37.7912 35.3406 38.0335 35.1348 38.3137 34.9944C39.1373 34.5826 40.6212 34.5223 42.0945 34.5223H42.9145C44.512 34.5436 44.9238 34.6466 45.5025 34.7921C46.674 35.0726 46.6988 35.8287 46.5959 38.4166C46.5639 39.1515 46.532 39.9822 46.532 40.962C46.532 41.175 46.5213 41.4022 46.5213 41.6436C46.4858 42.9606 46.4432 44.4552 47.3733 45.0693C47.4946 45.1454 47.6348 45.186 47.778 45.1865C48.1011 45.1865 49.0737 45.1865 51.7078 40.6674C52.5202 39.2128 53.2261 37.7012 53.8201 36.1446C53.8734 36.0523 54.0296 35.7684 54.2142 35.6583C54.3504 35.5888 54.5014 35.5535 54.6543 35.5553H60.9769C61.6656 35.5553 62.1378 35.6583 62.2265 35.9245C62.3827 36.347 62.1981 37.6357 59.312 41.5442L58.0233 43.2447C55.407 46.674 55.407 46.8479 58.1866 49.4501Z" fill="#1A1A1C"/>
</svg>
